# xmcd
#
# Track frame offsets:
#	150
#	21405
#	33629
#	43973
#	63085
#	76181
#	92737
#	115829
#	137058
#	150287
#	172242
#	191190
#
# Disc length: 2823 seconds
#
# Revision: 1
# Processed by: cddbd v1.5.2PL0 Copyright (c) Steve Scherf et al.
# Submitted via: audiograbber 1.83.01
#
DISCID=a00b050c
DTITLE=Latwerch Bänd - Do kumm ich her
DYEAR=2002
DGENRE=
TTITLE0=Pälzer lewen
TTITLE1=Do musche hie
TTITLE2=Isses Liebe
TTITLE3=Überdosis  G ' fiehl 
TTITLE4=Verzicher
TTITLE5=Die 10 Gebote
TTITLE6=Ich oder Du
TTITLE7=Knowweloch
TTITLE8=Bischoff Rock ' n '  Roll
TTITLE9=Grummbeerblues
TTITLE10=Fahrradfahre
TTITLE11=Moi Ää un Alles
EXTD=
EXTT0=
EXTT1=
EXTT2=
EXTT3=
EXTT4=
EXTT5=
EXTT6=
EXTT7=
EXTT8=
EXTT9=
EXTT10=
EXTT11=
PLAYORDER=
